<?xml version="1.0" encoding="UTF-8" standalone="no"?>
<!-- Created with Inkscape (http://www.inkscape.org/) -->

<svg
   xmlns:dc="http://purl.org/dc/elements/1.1/"
   xmlns:cc="http://creativecommons.org/ns#"
   xmlns:rdf="http://www.w3.org/1999/02/22-rdf-syntax-ns#"
   xmlns:svg="http://www.w3.org/2000/svg"
   xmlns="http://www.w3.org/2000/svg"
   xmlns:sodipodi="http://sodipodi.sourceforge.net/DTD/sodipodi-0.dtd"
   xmlns:inkscape="http://www.inkscape.org/namespaces/inkscape"
   width="114"
   height="114"
   id="svg2"
   version="1.1"
   inkscape:version="0.48.2 r9819"
   sodipodi:docname="logo_ville_source.svg">
  <defs
     id="defs4" />
  <sodipodi:namedview
     id="base"
     pagecolor="#ffffff"
     bordercolor="#666666"
     borderopacity="1.0"
     inkscape:pageopacity="0.0"
     inkscape:pageshadow="2"
     inkscape:zoom="4"
     inkscape:cx="41.479149"
     inkscape:cy="65.2128"
     inkscape:document-units="px"
     inkscape:current-layer="layer2"
     showgrid="false"
     showguides="true"
     inkscape:guide-bbox="true"
     inkscape:window-width="1920"
     inkscape:window-height="1178"
     inkscape:window-x="-8"
     inkscape:window-y="-8"
     inkscape:window-maximized="1">
    <inkscape:grid
       type="xygrid"
       id="grid2985"
       empspacing="5"
       visible="true"
       enabled="true"
       snapvisiblegridlinesonly="true" />
  </sodipodi:namedview>
  <metadata
     id="metadata7">
    <rdf:RDF>
      <cc:Work
         rdf:about="">
        <dc:format>image/svg+xml</dc:format>
        <dc:type
           rdf:resource="http://purl.org/dc/dcmitype/StillImage" />
      </cc:Work>
    </rdf:RDF>
  </metadata>
  <g
     inkscape:groupmode="layer"
     id="layer3"
     inkscape:label="fond"
     style="display:inline"
     transform="translate(0,-12)">
    <rect
       y="12.011719"
       x="-0.064174175"
       height="114"
       width="114"
       id="rect4033"
       style="color:#000000;fill:#d91145;fill-opacity:1;fill-rule:nonzero;stroke:none;stroke-width:1;marker:none;visibility:visible;display:inline;overflow:visible;enable-background:accumulate" />
    <rect
       y="12.011719"
       x="-0.064174175"
       height="114"
       width="114"
       id="rect4035"
       style="color:#000000;fill:#d91145;fill-opacity:1;fill-rule:nonzero;stroke:none;stroke-width:1;marker:none;visibility:visible;display:inline;overflow:visible;enable-background:accumulate" />
    <rect
       y="11.957031"
       x="-0.095424175"
       height="114"
       width="114"
       id="rect4037"
       style="color:#000000;fill:#d91145;fill-opacity:1;fill-rule:nonzero;stroke:none;stroke-width:1;marker:none;visibility:visible;display:inline;overflow:visible;enable-background:accumulate" />
    <rect
       y="11.925781"
       x="-0.12667418"
       height="114"
       width="114"
       id="rect4039"
       style="color:#000000;fill:#d91145;fill-opacity:1;fill-rule:nonzero;stroke:none;stroke-width:1;marker:none;visibility:visible;display:inline;overflow:visible;enable-background:accumulate" />
    <rect
       y="11.902344"
       x="-0.14229918"
       height="114"
       width="114"
       id="rect4041"
       style="color:#000000;fill:#d91145;fill-opacity:1;fill-rule:nonzero;stroke:none;stroke-width:1;marker:none;visibility:visible;display:inline;overflow:visible;enable-background:accumulate" />
    <rect
       y="11.871094"
       x="-0.17354918"
       height="114"
       width="114"
       id="rect4043"
       style="color:#000000;fill:#d91145;fill-opacity:1;fill-rule:nonzero;stroke:none;stroke-width:1;marker:none;visibility:visible;display:inline;overflow:visible;enable-background:accumulate" />
    <rect
       y="11.800781"
       x="-0.21261168"
       height="114"
       width="114"
       id="rect4045"
       style="color:#000000;fill:#d91145;fill-opacity:1;fill-rule:nonzero;stroke:none;stroke-width:1;marker:none;visibility:visible;display:inline;overflow:visible;enable-background:accumulate" />
    <rect
       y="11.777344"
       x="-0.23604918"
       height="114"
       width="114"
       id="rect4047"
       style="color:#000000;fill:#d91145;fill-opacity:1;fill-rule:nonzero;stroke:none;stroke-width:1;marker:none;visibility:visible;display:inline;overflow:visible;enable-background:accumulate" />
    <rect
       y="11.738281"
       x="-0.24386168"
       height="114"
       width="114"
       id="rect4049"
       style="color:#000000;fill:#d91145;fill-opacity:1;fill-rule:nonzero;stroke:none;stroke-width:1;marker:none;visibility:visible;display:inline;overflow:visible;enable-background:accumulate" />
    <rect
       y="11.730469"
       x="-0.25948668"
       height="114"
       width="114"
       id="rect4051"
       style="color:#000000;fill:#d91145;fill-opacity:1;fill-rule:nonzero;stroke:none;stroke-width:1;marker:none;visibility:visible;display:inline;overflow:visible;enable-background:accumulate" />
    <rect
       y="11.714844"
       x="-0.26729918"
       height="114"
       width="114"
       id="rect4053"
       style="color:#000000;fill:#d91145;fill-opacity:1;fill-rule:nonzero;stroke:none;stroke-width:1;marker:none;visibility:visible;display:inline;overflow:visible;enable-background:accumulate" />
    <rect
       y="11.691406"
       x="-0.26729918"
       height="114"
       width="114"
       id="rect4055"
       style="color:#000000;fill:#d91145;fill-opacity:1;fill-rule:nonzero;stroke:none;stroke-width:1;marker:none;visibility:visible;display:inline;overflow:visible;enable-background:accumulate" />
    <rect
       y="11.675781"
       x="-0.27511168"
       height="114"
       width="114"
       id="rect4057"
       style="color:#000000;fill:#d91145;fill-opacity:1;fill-rule:nonzero;stroke:none;stroke-width:1;marker:none;visibility:visible;display:inline;overflow:visible;enable-background:accumulate" />
    <rect
       y="11.652344"
       x="-0.27511168"
       height="114"
       width="114"
       id="rect4059"
       style="color:#000000;fill:#d91145;fill-opacity:1;fill-rule:nonzero;stroke:none;stroke-width:1;marker:none;visibility:visible;display:inline;overflow:visible;enable-background:accumulate" />
    <rect
       y="11.613281"
       x="-0.28292418"
       height="114"
       width="114"
       id="rect4061"
       style="color:#000000;fill:#d91145;fill-opacity:1;fill-rule:nonzero;stroke:none;stroke-width:1;marker:none;visibility:visible;display:inline;overflow:visible;enable-background:accumulate" />
    <rect
       y="11.605469"
       x="-0.28292418"
       height="114"
       width="114"
       id="rect4063"
       style="color:#000000;fill:#d91145;fill-opacity:1;fill-rule:nonzero;stroke:none;stroke-width:1;marker:none;visibility:visible;display:inline;overflow:visible;enable-background:accumulate" />
    <rect
       y="11.582031"
       x="-0.28292418"
       height="114"
       width="114"
       id="rect4065"
       style="color:#000000;fill:#d91145;fill-opacity:1;fill-rule:nonzero;stroke:none;stroke-width:1;marker:none;visibility:visible;display:inline;overflow:visible;enable-background:accumulate" />
    <rect
       y="11.558594"
       x="-0.29073668"
       height="114"
       width="114"
       id="rect4067"
       style="color:#000000;fill:#d91145;fill-opacity:1;fill-rule:nonzero;stroke:none;stroke-width:1;marker:none;visibility:visible;display:inline;overflow:visible;enable-background:accumulate" />
    <rect
       y="11.542969"
       x="-0.29073668"
       height="114"
       width="114"
       id="rect4069"
       style="color:#000000;fill:#d91145;fill-opacity:1;fill-rule:nonzero;stroke:none;stroke-width:1;marker:none;visibility:visible;display:inline;overflow:visible;enable-background:accumulate" />
    <rect
       y="11.527344"
       x="-0.29854918"
       height="114"
       width="114"
       id="rect4071"
       style="color:#000000;fill:#d91145;fill-opacity:1;fill-rule:nonzero;stroke:none;stroke-width:1;marker:none;visibility:visible;display:inline;overflow:visible;enable-background:accumulate" />
    <rect
       y="11.527344"
       x="-0.29854918"
       height="114"
       width="114"
       id="rect4073"
       style="color:#000000;fill:#d91145;fill-opacity:1;fill-rule:nonzero;stroke:none;stroke-width:1;marker:none;visibility:visible;display:inline;overflow:visible;enable-background:accumulate" />
    <rect
       y="11.527344"
       x="-0.29854918"
       height="114"
       width="114"
       id="rect4075"
       style="color:#000000;fill:#d91145;fill-opacity:1;fill-rule:nonzero;stroke:none;stroke-width:1;marker:none;visibility:visible;display:inline;overflow:visible;enable-background:accumulate" />
    <rect
       y="11.527344"
       x="-0.29854918"
       height="114"
       width="114"
       id="rect4077"
       style="color:#000000;fill:#d91145;fill-opacity:1;fill-rule:nonzero;stroke:none;stroke-width:1;marker:none;visibility:visible;display:inline;overflow:visible;enable-background:accumulate" />
    <rect
       y="11.527344"
       x="-0.29854918"
       height="114"
       width="114"
       id="rect4079"
       style="color:#000000;fill:#d91145;fill-opacity:1;fill-rule:nonzero;stroke:none;stroke-width:1;marker:none;visibility:visible;display:inline;overflow:visible;enable-background:accumulate" />
    <rect
       y="11.527344"
       x="-0.29854918"
       height="114"
       width="114"
       id="rect4081"
       style="color:#000000;fill:#d91145;fill-opacity:1;fill-rule:nonzero;stroke:none;stroke-width:1;marker:none;visibility:visible;display:inline;overflow:visible;enable-background:accumulate" />
    <rect
       y="11.527344"
       x="-0.29854918"
       height="114"
       width="114"
       id="rect4083"
       style="color:#000000;fill:#d91145;fill-opacity:1;fill-rule:nonzero;stroke:none;stroke-width:1;marker:none;visibility:visible;display:inline;overflow:visible;enable-background:accumulate" />
    <rect
       y="11.527344"
       x="-0.29854918"
       height="114"
       width="114"
       id="rect4085"
       style="color:#000000;fill:#d91145;fill-opacity:1;fill-rule:nonzero;stroke:none;stroke-width:1;marker:none;visibility:visible;display:inline;overflow:visible;enable-background:accumulate" />
    <rect
       y="11.574219"
       x="-0.31417418"
       height="114"
       width="114"
       id="rect4087"
       style="color:#000000;fill:#d91145;fill-opacity:1;fill-rule:nonzero;stroke:none;stroke-width:1;marker:none;visibility:visible;display:inline;overflow:visible;enable-background:accumulate" />
  </g>
  <g
     inkscape:groupmode="layer"
     id="layer2"
     inkscape:label="texte"
     style="display:inline"
     transform="translate(0,-12)">
    <g
       style="font-size:40px;font-style:normal;font-variant:normal;font-weight:normal;font-stretch:normal;line-height:125%;letter-spacing:0px;word-spacing:0px;fill:#ffffff;fill-opacity:1;stroke:none;font-family:Dotum;-inkscape-font-specification:Dotum"
       id="text3837">
      <path
         d="m 15.613092,38.584286 1.198853,0 3.459412,-10.152649 -1.172791,0 -2.879211,8.726501 -2.865967,-8.726501 -1.211243,0 z"
         style="font-size:14px;font-weight:bold;letter-spacing:-1.17999995px;word-spacing:-0.47px;fill:#ffffff;font-family:Dotum;-inkscape-font-specification:Dotum Bold"
         id="path4375" />
      <path
         d="m 20.440173,38.584286 1.199279,0 0,-10.152649 -1.199279,0 z"
         style="font-size:14px;font-weight:bold;letter-spacing:-1.17999995px;word-spacing:-0.47px;fill:#ffffff;font-family:Dotum;-inkscape-font-specification:Dotum Bold"
         id="path4377" />
      <path
         d="m 22.694377,38.584286 6.265991,0 0,-1.091187 -5.067139,0 0,-9.061462 -1.198852,0 z"
         style="font-size:14px;font-weight:bold;letter-spacing:-1.17999995px;word-spacing:-0.47px;fill:#ffffff;font-family:Dotum;-inkscape-font-specification:Dotum Bold"
         id="path4379" />
      <path
         d="m 29.479221,38.584286 6.265992,0 0,-1.091187 -5.067139,0 0,-9.061462 -1.198853,0 z"
         style="font-size:14px;font-weight:bold;letter-spacing:-1.17999995px;word-spacing:-0.47px;fill:#ffffff;font-family:Dotum;-inkscape-font-specification:Dotum Bold"
         id="path4381" />
      <path
         d="m 36.264065,38.584286 6.93634,0 0,-1.091187 -5.737488,0 0,-3.573486 5.094056,0 0,-1.091187 -5.094056,0 0,-3.305603 5.576416,0 0,-1.091186 -6.775268,0 z"
         style="font-size:14px;font-weight:bold;letter-spacing:-1.17999995px;word-spacing:-0.47px;fill:#ffffff;font-family:Dotum;-inkscape-font-specification:Dotum Bold"
         id="path4383" />
      <path
         d="m 49.232771,28.431637 -2.509644,0 0,10.152649 2.911682,0 c 0.727453,0 1.305659,-0.02848 1.73462,-0.08545 0.50215,-0.06181 0.933668,-0.183004 1.294555,-0.363587 0.694695,-0.379678 1.2269,-0.961872 1.596619,-1.746582 0.367707,-0.789548 0.551565,-1.756405 0.551575,-2.900574 -1e-5,-1.068963 -0.170053,-1.989393 -0.510132,-2.761291 -0.330982,-0.754223 -0.817045,-1.340262 -1.458191,-1.758118 -0.351203,-0.219025 -0.783291,-0.369273 -1.296265,-0.450744 -0.40418,-0.05753 -0.947922,-0.08629 -1.631225,-0.0863 z m -1.310791,9.061462 0,-7.970276 1.712829,0 c 0.684729,9e-6 1.17891,0.01781 1.482544,0.05341 0.446324,0.05071 0.786839,0.153533 1.021546,0.308472 0.488762,0.314746 0.849358,0.768766 1.081787,1.36206 0.234977,0.60926 0.35247,1.3652 0.352478,2.267823 -8e-6,0.937382 -0.122058,1.707136 -0.36615,2.309265 -0.239835,0.60071 -0.592313,1.042197 -1.057434,1.324463 -0.26319,0.14441 -0.611395,0.238831 -1.044617,0.283264 -0.288823,0.04102 -0.747543,0.06152 -1.376159,0.06152 z"
         style="font-size:14px;font-weight:bold;letter-spacing:-1.17999995px;word-spacing:-0.47px;fill:#ffffff;font-family:Dotum;-inkscape-font-specification:Dotum Bold"
         id="path4385" />
      <path
         d="m 55.523596,28.431637 0,6.490722 c -10e-7,1.287153 0.369139,2.279929 1.107422,2.978333 0.539466,0.643433 1.440242,0.965149 2.702331,0.965149 1.25097,0 2.202304,-0.335246 2.854004,-1.005737 0.655387,-0.673909 0.983084,-1.653156 0.983093,-2.937745 l 0,-6.490722 -1.199279,0 0,6.369812 c -8e-6,1.030805 -0.20708,1.7829 -0.621216,2.256286 -0.419278,0.477947 -1.091478,0.71692 -2.016602,0.716919 -0.926843,1e-6 -1.595198,-0.238259 -2.005066,-0.714782 -0.403892,-0.471393 -0.605837,-1.2242 -0.605835,-2.258423 l 0,-6.369812 z"
         style="font-size:14px;font-weight:bold;letter-spacing:-1.17999995px;word-spacing:-0.47px;fill:#ffffff;font-family:Dotum;-inkscape-font-specification:Dotum Bold"
         id="path4387" />
    </g>
    <g
       style="font-size:40px;font-style:normal;font-weight:normal;line-height:125%;letter-spacing:0px;word-spacing:0px;fill:#ffffff;fill-opacity:1;stroke:none;font-family:Sans"
       id="text3845">
      <path
         d="m 13.337633,65.213814 0,-25.053711 8.117676,0 c 3.076158,2.5e-5 5.081364,0.12535 6.015625,0.375976 1.435529,0.376001 2.637513,1.193465 3.605957,2.452393 0.968403,1.258973 1.452615,2.885355 1.452637,4.87915 -2.2e-5,1.538102 -0.279156,2.831232 -0.837403,3.879395 -0.558288,1.048189 -1.267516,1.871349 -2.127685,2.469482 -0.860207,0.598155 -1.734636,0.99407 -2.623291,1.187744 -1.207697,0.239268 -2.956556,0.358897 -5.246582,0.358887 l -3.29834,0 0,9.450684 z m 5.058594,-20.81543 0,7.109375 2.768555,0 c 1.993802,1.4e-5 3.326809,-0.131008 3.999023,-0.393066 0.672185,-0.26203 1.199122,-0.672186 1.580811,-1.230469 0.381656,-0.558252 0.572493,-1.207666 0.572509,-1.948242 -1.6e-5,-0.91144 -0.267757,-1.663393 -0.803222,-2.25586 -0.535497,-0.592427 -1.213394,-0.962707 -2.033692,-1.110839 -0.603854,-0.113912 -1.817232,-0.170878 -3.640136,-0.170899 z"
         style="font-size:35px;font-weight:bold;letter-spacing:-0.52999997px;fill:#ffffff;-inkscape-font-specification:Sans Bold"
         id="path4390" />
      <path
         d="m 40.749527,65.213814 -4.802246,0 0,-18.149414 4.460449,0 0,2.580566 c 0.763339,-1.219059 1.44978,-2.02228 2.059326,-2.409668 0.609529,-0.387351 1.301667,-0.581036 2.076416,-0.581055 1.093738,1.9e-5 2.147611,0.301939 3.161621,0.905762 l -1.486816,4.187012 c -0.808931,-0.524075 -1.560883,-0.786119 -2.255859,-0.786133 -0.672211,1.4e-5 -1.241871,0.185154 -1.708985,0.55542 -0.46713,0.370293 -0.834562,1.039645 -1.102295,2.008057 -0.267748,0.968435 -0.401618,2.996428 -0.401611,6.083984 z"
         style="font-size:35px;font-weight:bold;letter-spacing:-0.52999997px;fill:#ffffff;-inkscape-font-specification:Sans Bold"
         id="path4392" />
      <path
         d="m 59.736128,59.437447 4.785156,0.803222 c -0.615251,1.754561 -1.586523,3.090416 -2.913818,4.007569 -1.327325,0.917155 -2.987887,1.375732 -4.98169,1.375732 -3.155931,0 -5.491541,-1.031087 -7.006836,-3.093262 -1.19629,-1.652014 -1.794434,-3.736972 -1.794433,-6.254882 -10e-7,-3.007801 0.786131,-5.363349 2.358398,-7.066651 1.572261,-1.70327 3.560377,-2.554913 5.964356,-2.554932 2.700183,1.9e-5 4.830715,0.891538 6.391601,2.674561 1.560855,1.783054 2.307111,4.514578 2.23877,8.19458 l -12.03125,0 c 0.03417,1.42416 0.421543,2.53215 1.162109,3.323975 0.740552,0.791833 1.663403,1.187747 2.768555,1.187744 0.751942,3e-6 1.384266,-0.205075 1.896972,-0.615235 0.512683,-0.410152 0.900053,-1.070958 1.16211,-1.982421 z m 0.273437,-4.853516 c -0.03419,-1.389962 -0.393079,-2.446683 -1.07666,-3.170166 -0.683605,-0.723456 -1.51531,-1.08519 -2.495117,-1.085205 -1.048186,1.5e-5 -1.91407,0.381688 -2.597656,1.145019 -0.6836,0.76336 -1.0197,1.800143 -1.008301,3.110352 z m -6.135254,-9.741211 2.358399,-5.109863 5.383301,0 -4.699707,5.109863 z"
         style="font-size:35px;font-weight:bold;letter-spacing:-0.52999997px;fill:#ffffff;-inkscape-font-specification:Sans Bold"
         id="path4394" />
    </g>
    <path
       inkscape:connector-curvature="0"
       id="path3937"
       style="font-size:35px;font-style:normal;font-variant:normal;font-weight:normal;font-stretch:normal;line-height:125%;letter-spacing:-2.02999997px;word-spacing:0px;fill:#ffffff;fill-opacity:1;stroke:none;font-family:Dotum;-inkscape-font-specification:Dotum"
       d="m 29.020935,82.379196 0,0.170899 c -2e-6,2.620447 0.808916,4.637047 2.426758,6.049804 1.617832,1.435547 3.942049,2.15332 6.972656,2.153321 2.666001,-10e-7 4.773747,-0.660808 6.323242,-1.982422 1.54946,-1.321612 2.324199,-3.098954 2.324219,-5.332032 -2e-5,-2.027986 -0.63804,-3.611643 -1.914062,-4.750976 -1.2077,-1.070951 -3.201513,-1.948229 -5.981446,-2.631836 l -2.939453,-0.717773 c -1.503914,-0.387355 -2.58627,-0.911443 -3.24707,-1.572266 -0.660813,-0.683577 -0.991216,-1.606428 -0.991211,-2.768555 -5e-6,-1.503886 0.489903,-2.665994 1.469726,-3.486328 1.002597,-0.820289 2.438142,-1.230445 4.306641,-1.230469 1.936836,2.4e-5 3.440741,0.478539 4.511719,1.435547 1.093733,0.957053 1.652001,2.335632 1.674804,4.135742 l 2.392579,0 c -0.04559,-2.415344 -0.808938,-4.295225 -2.290039,-5.639648 -1.481136,-1.344376 -3.543308,-2.016576 -6.186524,-2.016602 -2.552092,2.6e-5 -4.580084,0.626653 -6.083984,1.879883 -1.458337,1.230492 -2.187503,2.859722 -2.1875,4.887696 -3e-6,1.936866 0.558265,3.429377 1.674804,4.477539 1.002599,0.911472 2.734368,1.68621 5.195313,2.324218 l 2.358398,0.581055 c 2.187486,0.546886 3.679998,1.16212 4.477539,1.845703 0.934228,0.774749 1.40135,1.94825 1.401368,3.520508 -1.8e-5,1.503911 -0.558286,2.700199 -1.674805,3.588867 -1.116552,0.91146 -2.654636,1.367189 -4.614258,1.367188 -2.233082,10e-7 -3.964851,-0.558267 -5.195312,-1.674805 -1.207688,-1.093746 -1.811528,-2.63183 -1.811524,-4.614258 z" />
    <path
       inkscape:connector-curvature="0"
       id="path3939"
       style="font-size:35px;font-style:normal;font-variant:normal;font-weight:normal;font-stretch:normal;line-height:125%;letter-spacing:-2.02999997px;word-spacing:0px;fill:#ffffff;fill-opacity:1;stroke:none;font-family:Dotum;-inkscape-font-specification:Dotum"
       d="m 61.956755,87.43779 0,0.273437 c -1.5e-5,0.820314 0.216456,1.446941 0.649414,1.879883 0.432927,0.432943 1.08234,0.649414 1.948242,0.649414 0.182274,0 0.375959,-0.01139 0.581055,-0.03418 0.296205,-0.04557 0.603822,-0.09115 0.922851,-0.136719 l 0,-1.572266 -0.751953,0 c -0.592465,2e-6 -0.979835,-0.136717 -1.162109,-0.410156 -0.11395,-0.18229 -0.170916,-0.592445 -0.170899,-1.230469 l 0,-9.912109 c -1.7e-5,-1.822902 -0.569677,-3.201481 -1.708984,-4.135742 -1.116551,-0.911441 -2.757174,-1.367169 -4.921875,-1.367188 -2.210295,1.9e-5 -3.96485,0.5355 -5.263672,1.606445 -1.276045,1.048193 -1.925459,2.472346 -1.948242,4.272461 l 2.084961,0 c 0.04557,-1.344387 0.501296,-2.358383 1.367187,-3.041992 0.865878,-0.660791 2.119132,-0.991194 3.759766,-0.991211 1.617827,1.7e-5 2.779935,0.319027 3.486328,0.957032 0.683579,0.592463 1.025376,1.595066 1.025391,3.007812 -1.5e-5,0.843111 -0.307632,1.435558 -0.922852,1.777344 -0.455742,0.273448 -1.207695,0.455739 -2.255859,0.546875 l -0.957032,0.06836 c -1.321623,0.09116 -2.30144,0.193695 -2.939453,0.307617 -1.025397,0.159515 -1.902675,0.421559 -2.631836,0.786133 -0.979821,0.410165 -1.708987,1.002613 -2.1875,1.777344 -0.501304,0.774746 -0.751955,1.697597 -0.751953,2.768555 -2e-6,1.572268 0.535479,2.836916 1.606446,3.793945 1.093745,0.979818 2.56347,1.469726 4.409179,1.469726 1.276033,0 2.47232,-0.262044 3.588867,-0.786132 1.116524,-0.524088 2.1647,-1.298827 3.144532,-2.324219 z m -0.102539,-6.938477 0,2.563477 c -1.5e-5,1.70899 -0.592462,3.076176 -1.777344,4.101562 -1.162121,1.002606 -2.688812,1.503908 -4.580078,1.503907 -1.276049,10e-7 -2.290045,-0.319009 -3.041992,-0.957032 -0.729172,-0.638017 -1.093755,-1.469722 -1.09375,-2.495117 -5e-6,-0.979812 0.341792,-1.78873 1.02539,-2.426758 0.751947,-0.706372 1.811517,-1.139314 3.178711,-1.298828 l 2.119141,-0.273437 c 1.070952,-0.09114 1.834297,-0.182283 2.290039,-0.273438 0.751939,-0.113923 1.378566,-0.262035 1.879883,-0.444336 z" />
    <path
       inkscape:connector-curvature="0"
       id="path3943"
       style="font-size:35px;font-style:normal;font-variant:normal;font-weight:normal;font-stretch:normal;line-height:125%;letter-spacing:-2.02999997px;word-spacing:0px;fill:#ffffff;fill-opacity:1;stroke:none;font-family:Dotum;-inkscape-font-specification:Dotum"
       d="m 74.337185,90.035446 2.084961,0 0,-10.698242 c -5e-6,-1.891264 0.501297,-3.383775 1.503906,-4.477539 1.002597,-1.070947 2.346997,-1.606429 4.033203,-1.606445 1.777332,1.6e-5 2.985013,0.444352 3.623047,1.333007 0.592433,0.774755 0.888657,2.141941 0.888672,4.101563 l 0,11.347656 2.084961,0 0,-11.586914 c -1.7e-5,-1.162097 -0.0342,-2.016588 -0.102539,-2.563476 -0.113949,-0.774725 -0.319027,-1.412745 -0.615235,-1.914063 -0.501317,-0.820296 -1.21909,-1.458316 -2.15332,-1.914062 -0.957044,-0.432925 -2.062186,-0.649396 -3.31543,-0.649415 -1.321624,1.9e-5 -2.483732,0.273456 -3.486328,0.820313 -1.00261,0.569679 -1.834315,1.412777 -2.495117,2.529297 l 0,-2.905274 -2.050781,0 z" />
    <path
       inkscape:connector-curvature="0"
       id="path3945"
       style="font-size:35px;font-style:normal;font-variant:normal;font-weight:normal;font-stretch:normal;line-height:125%;letter-spacing:-2.02999997px;word-spacing:0px;fill:#ffffff;fill-opacity:1;stroke:none;font-family:Dotum;-inkscape-font-specification:Dotum"
       d="m 95.378475,66.62236 -2.084961,0 0,5.229492 -2.460937,0 0,1.708985 2.460937,0 0,13.261719 c -4e-6,1.29883 0.182288,2.210287 0.546875,2.734375 0.432938,0.615234 1.21907,0.922851 2.358399,0.922851 0.387362,0 0.786125,-0.03418 1.196289,-0.102539 0.410148,-0.06836 0.865876,-0.170899 1.367187,-0.307617 l 0,-1.640625 -0.341797,0.06836 c -0.410165,0.09115 -0.717781,0.148114 -0.922851,0.170899 -0.296232,0.06836 -0.546883,0.10254 -0.751953,0.102539 -0.569669,10e-7 -0.945645,-0.170897 -1.12793,-0.512696 -0.159511,-0.273435 -0.239264,-0.75195 -0.239258,-1.435546 l 0,-13.261719 3.383789,0 0,-1.708985 -3.383789,0 z" />
    <path
       inkscape:connector-curvature="0"
       id="path3948"
       style="font-size:35px;font-style:normal;font-variant:normal;font-weight:normal;font-stretch:normal;line-height:125%;letter-spacing:-1.94000006px;word-spacing:0px;fill:#ffffff;fill-opacity:1;stroke:none;font-family:Dotum;-inkscape-font-specification:Dotum"
       d="m 24.910656,112.06882 1.845703,0 0,-12.919925 -9.980469,0 0,2.084965 7.758789,0 0,0.10254 c -2.1e-5,2.89388 -0.751973,5.18392 -2.255859,6.87011 -1.481137,1.66342 -3.47495,2.49512 -5.981445,2.49512 -2.415375,0 -4.375009,-1.014 -5.878907,-3.04199 -1.5266976,-2.07356 -2.2900432,-4.83072 -2.2900386,-8.271487 -4.6e-6,-3.554671 0.763341,-6.31183 2.2900386,-8.271484 1.481112,-1.868467 3.531891,-2.802711 6.152344,-2.802735 1.914048,2.4e-5 3.543278,0.524112 4.887696,1.572266 1.367168,1.048198 2.233052,2.495137 2.597656,4.34082 l 2.392578,0 c -0.364606,-2.50649 -1.435568,-4.477517 -3.212891,-5.913086 -1.754575,-1.389949 -3.987646,-2.084935 -6.699218,-2.084961 -3.212901,2.6e-5 -5.799161,1.150741 -7.7587895,3.452149 -2.027998,2.392598 -3.0419944,5.639665 -3.0419922,9.741211 -2.2e-6,4.078787 1.002601,7.337247 3.0078125,9.775387 1.9368422,2.39258 4.4775292,3.58887 7.6220702,3.58887 1.70897,0 3.3382,-0.46712 4.887695,-1.40137 1.481101,-0.88867 2.631816,-2.03938 3.452149,-3.45215 z" />
    <path
       inkscape:connector-curvature="0"
       id="path3950"
       style="font-size:35px;font-style:normal;font-variant:normal;font-weight:normal;font-stretch:normal;line-height:125%;letter-spacing:-1.94000006px;word-spacing:0px;fill:#ffffff;fill-opacity:1;stroke:none;font-family:Dotum;-inkscape-font-specification:Dotum"
       d="m 32.130812,101.67819 c -0.02279,-1.868475 0.54687,-3.440739 1.708984,-4.716795 1.025384,-1.11652 2.335604,-1.674788 3.930664,-1.674804 1.572254,1.6e-5 2.848295,0.558284 3.828125,1.674804 1.093735,1.276056 1.64061,2.84832 1.640625,4.716795 z m 0,1.67481 13.295898,0 0,-0.6836 c -1.7e-5,-2.916651 -0.683611,-5.195295 -2.050781,-6.835934 -1.367202,-1.595035 -3.212903,-2.39256 -5.537109,-2.392579 -2.460946,1.9e-5 -4.386399,0.831724 -5.776368,2.495118 -1.412763,1.708998 -2.119142,4.090185 -2.11914,7.143555 -2e-6,2.98503 0.694984,5.32064 2.084961,7.00684 1.389968,1.66341 3.292635,2.49511 5.708007,2.49511 2.005197,0 3.68,-0.56966 5.024415,-1.70898 1.367171,-1.11654 2.164696,-2.58626 2.392578,-4.40918 l -2.084961,0 c -0.205093,1.29883 -0.786148,2.33561 -1.743164,3.11035 -0.934258,0.75195 -2.073579,1.12793 -3.417969,1.12793 -1.731779,0 -3.121752,-0.64941 -4.169922,-1.94824 -1.070968,-1.32161 -1.60645,-3.12174 -1.606445,-5.40039 z" />
    <path
       inkscape:connector-curvature="0"
       id="path3952"
       style="font-size:35px;font-style:normal;font-variant:normal;font-weight:normal;font-stretch:normal;line-height:125%;letter-spacing:-1.94000006px;word-spacing:0px;fill:#ffffff;fill-opacity:1;stroke:none;font-family:Dotum;-inkscape-font-specification:Dotum"
       d="m 48.306046,112.06882 2.08496,0 0,-10.08301 c -4e-6,-2.096343 0.455724,-3.691393 1.367188,-4.785157 0.888665,-1.070948 2.164705,-1.606429 3.828125,-1.606445 l 0.307617,0 0,-2.153321 -0.239258,0 c -1.207691,1.9e-5 -2.255867,0.284849 -3.144531,0.854493 -0.934251,0.615251 -1.652024,1.538102 -2.15332,2.768554 l 0,-3.178711 -2.050781,0 z" />
    <path
       inkscape:connector-curvature="0"
       id="path3954"
       style="font-size:35px;font-style:normal;font-variant:normal;font-weight:normal;font-stretch:normal;line-height:125%;letter-spacing:-1.94000006px;word-spacing:0px;fill:#ffffff;fill-opacity:1;stroke:none;font-family:Dotum;-inkscape-font-specification:Dotum"
       d="m 63.440434,112.06882 2.324218,0 6.59668,-18.183597 -2.15332,0 -5.50293,15.620117 -5.50293,-15.620117 -2.290039,0 z" />
    <path
       inkscape:connector-curvature="0"
       id="path3956"
       style="font-size:35px;font-style:normal;font-variant:normal;font-weight:normal;font-stretch:normal;line-height:125%;letter-spacing:-1.94000006px;word-spacing:0px;fill:#ffffff;fill-opacity:1;stroke:none;font-family:Dotum;-inkscape-font-specification:Dotum"
       d="m 84.598934,109.47116 0,0.27344 c -1.5e-5,0.82031 0.216456,1.44694 0.649414,1.87988 0.432927,0.43294 1.08234,0.64942 1.948242,0.64942 0.182274,0 0.375959,-0.0114 0.581055,-0.0342 0.296206,-0.0456 0.603823,-0.0911 0.922852,-0.13672 l 0,-1.57227 -0.751953,0 c -0.592466,0 -0.979835,-0.13672 -1.16211,-0.41016 -0.113949,-0.18228 -0.170915,-0.59244 -0.170898,-1.23046 l 0,-9.912113 c -1.7e-5,-1.822902 -0.569678,-3.201481 -1.708985,-4.135742 -1.11655,-0.911441 -2.757173,-1.367169 -4.921875,-1.367188 -2.210294,1.9e-5 -3.96485,0.5355 -5.263672,1.606445 -1.276045,1.048193 -1.925458,2.472346 -1.948242,4.272461 l 2.084961,0 c 0.04557,-1.344387 0.501297,-2.358383 1.367188,-3.041992 0.865878,-0.660791 2.119132,-0.991194 3.759765,-0.991211 1.617827,1.7e-5 2.779935,0.319027 3.486328,0.957032 0.68358,0.592463 1.025376,1.595066 1.025391,3.007812 -1.5e-5,0.843106 -0.307632,1.435556 -0.922851,1.777346 -0.455743,0.27345 -1.207695,0.45574 -2.25586,0.54687 l -0.957031,0.0684 c -1.321624,0.0912 -2.301441,0.1937 -2.939453,0.30762 -1.025397,0.15951 -1.902675,0.42156 -2.631836,0.78613 -0.979822,0.41017 -1.708988,1.00261 -2.1875,1.77735 -0.501305,0.77474 -0.751955,1.69759 -0.751953,2.76855 -2e-6,1.57227 0.535479,2.83692 1.606445,3.79395 1.093745,0.97981 2.56347,1.46972 4.40918,1.46972 1.276032,0 2.47232,-0.26204 3.588867,-0.78613 1.116524,-0.52409 2.1647,-1.29883 3.144531,-2.32422 z m -0.102539,-6.93848 0,2.56348 c -1.5e-5,1.70899 -0.592462,3.07618 -1.777344,4.10156 -1.162121,1.00261 -2.688812,1.50391 -4.580078,1.50391 -1.276049,0 -2.290045,-0.31901 -3.041992,-0.95703 -0.729171,-0.63802 -1.093754,-1.46972 -1.09375,-2.49512 -4e-6,-0.97981 0.341792,-1.78873 1.025391,-2.42676 0.751947,-0.70637 1.811516,-1.13931 3.178711,-1.29882 l 2.11914,-0.27344 c 1.070952,-0.0911 1.834298,-0.18228 2.290039,-0.27344 0.75194,-0.11392 1.378567,-0.26203 1.879883,-0.44434 z" />
    <path
       inkscape:connector-curvature="0"
       id="path3960"
       style="font-size:35px;font-style:normal;font-variant:normal;font-weight:normal;font-stretch:normal;line-height:125%;letter-spacing:-1.94000006px;word-spacing:0px;fill:#ffffff;fill-opacity:1;stroke:none;font-family:Dotum;-inkscape-font-specification:Dotum"
       d="m 96.407413,106.39499 c 0.04557,1.86849 0.694985,3.361 1.948243,4.47754 1.276036,1.13932 2.973624,1.70898 5.092774,1.70898 2.09634,0 3.78254,-0.5013 5.05859,-1.5039 1.25324,-0.97982 1.87987,-2.22168 1.87989,-3.72559 -2e-5,-1.45833 -0.44436,-2.57486 -1.33301,-3.34961 -0.82033,-0.70637 -2.22169,-1.29882 -4.2041,-1.77734 l -0.82032,-0.20508 c -1.93685,-0.45572 -3.19011,-0.84309 -3.75976,-1.16211 -0.865892,-0.52408 -1.298835,-1.344389 -1.29883,-2.460938 -5e-6,-0.93423 0.341792,-1.674789 1.025391,-2.22168 0.751949,-0.592431 1.754549,-0.888655 3.007809,-0.888671 1.41275,1.6e-5 2.54068,0.341813 3.38379,1.02539 0.8203,0.706395 1.27603,1.674819 1.36719,2.905274 l 2.15332,0 c -0.13673,-1.822902 -0.80893,-3.235661 -2.0166,-4.238282 -1.2077,-1.025372 -2.82553,-1.538067 -4.85352,-1.538086 -1.86849,1.9e-5 -3.383792,0.489927 -4.545896,1.469727 -1.139326,0.979834 -1.708986,2.244481 -1.708984,3.793945 -2e-6,1.458341 0.546872,2.574881 1.640625,3.349611 0.888667,0.63803 2.529295,1.25326 4.921875,1.8457 l 0.10254,0 c 1.84569,0.45574 3.03059,0.84311 3.55469,1.16211 0.8203,0.47852 1.23045,1.23048 1.23047,2.25586 -2e-5,1.00261 -0.42157,1.81153 -1.26465,2.42676 -0.88869,0.63802 -2.08497,0.95703 -3.58887,0.95703 -1.41277,0 -2.56348,-0.41015 -3.452149,-1.23047 -0.911463,-0.79752 -1.367191,-1.82291 -1.367187,-3.07617 z" />
    <text
       xml:space="preserve"
       style="font-size:40px;font-style:normal;font-variant:normal;font-weight:normal;font-stretch:normal;line-height:125%;letter-spacing:0px;word-spacing:0px;fill:#ffffff;fill-opacity:1;stroke:none;font-family:Dotum;-inkscape-font-specification:Dotum"
       x="53.460045"
       y="139.08147"
       id="text3878"
       sodipodi:linespacing="125%"><tspan
         sodipodi:role="line"
         id="tspan3880"
         x="53.460045"
         y="139.08147"
         style="font-size:35px;font-style:normal;font-variant:normal;font-weight:normal;font-stretch:normal;letter-spacing:-2.69000006px;fill:#ffffff;font-family:Dotum;-inkscape-font-specification:Dotum" /></text>
    <rect
       style="color:#000000;fill:#ffffff;fill-opacity:1;fill-rule:nonzero;stroke:none;stroke-width:1;marker:none;visibility:visible;display:inline;overflow:visible;enable-background:accumulate"
       id="rect3932"
       width="6.1871843"
       height="1.9445436"
       x="101.29305"
       y="80.391609" />
  </g>
  <g
     inkscape:groupmode="layer"
     id="layer5"
     inkscape:label="i"
     style="display:inline">
    <rect
       style="color:#000000;fill:#ffffff;fill-opacity:1;fill-rule:nonzero;stroke:none;stroke-width:1;marker:none;visibility:visible;display:inline;overflow:visible;enable-background:accumulate"
       id="rect3962-8-4"
       width="2.093488"
       height="2.121321"
       x="-70.575165"
       y="56.901127"
       transform="scale(-1,1)" />
    <rect
       style="color:#000000;fill:#ffffff;fill-opacity:1;fill-rule:nonzero;stroke:none;stroke-width:1;marker:none;visibility:visible;display:inline;overflow:visible;enable-background:accumulate"
       id="rect3962-8-4-5"
       width="2.1247406"
       height="2.121321"
       x="-93.312241"
       y="78.816177"
       transform="scale(-1,1)" />
    <rect
       style="color:#000000;fill:#ffffff;fill-opacity:1;fill-rule:nonzero;stroke:none;stroke-width:1;marker:none;visibility:visible;display:inline;overflow:visible;enable-background:accumulate"
       id="rect3962-8-4-5-6"
       width="2.1247406"
       height="18.203125"
       x="-93.296875"
       y="81.875"
       transform="scale(-1,1)" />
    <rect
       style="color:#000000;fill:#ffffff;fill-opacity:1;fill-rule:nonzero;stroke:none;stroke-width:1;marker:none;visibility:visible;display:inline;overflow:visible;enable-background:accumulate"
       id="rect3962-8-4-1"
       width="2.093488"
       height="18.203125"
       x="-70.5625"
       y="59.828125"
       transform="scale(-1,1)" />
  </g>
  <g
     inkscape:groupmode="layer"
     id="layer4"
     inkscape:label="feuille"
     style="display:inline"
     transform="translate(0,-12)">
    <path
       style="fill:#ffffff;fill-opacity:1;stroke:none;display:inline"
       d="m 80.868064,63.878319 c 5.346119,1.181148 10.877115,0.971602 12.971902,-2.527625 C 95.6108,54.208749 80.856029,48.817445 79.510671,47.273936 c 2.239056,0.663706 13.923794,6.797744 15.373259,10.16466 2.52128,0.613086 2.17077,-6.288208 2.14657,-7.38674 0.3365,-3.665384 -8.321316,-10.078843 -8.302187,-10.669737 4.338963,2.749445 7.965227,5.618529 9.646507,9.356058 0.80323,-2.966901 1.95784,-2.980397 2.38062,-19.015641 1.3236,3.682182 -0.0258,20.196877 -1.38896,23.927988 4.23034,-0.750567 6.80881,-2.09544 8.04965,-2.556948 -1.81522,1.913696 -8.23011,2.793599 -9.31234,5.461136 0.88002,1.794538 4.80466,1.559528 6.91323,2.08344 -1.21223,0.415318 -9.23143,-1.854455 -8.49159,1.957171 0.92113,3.784565 8.32828,6.539946 13.38452,6.187184 -0.78747,-4.240883 -2.13425,-5.405942 -3.72495,-7.228903 1.72512,-0.515031 5.15112,-0.807992 7.92339,-1.86247 0.0182,-3.045092 0.0979,-5.28918 1e-5,-9.343911 -1.52988,-0.163612 -3.63329,0.593025 -4.48256,0.220971 -0.0939,-0.401639 3.62814,-3.510442 4.41941,-6.060916 -0.0339,-2.871692 0.1104,-5.380887 0.0316,-8.807267 -4.08873,1.973777 -5.70723,2.643159 -9.84899,5.303301 0.1404,-5.090575 0.98881,-13.017377 -3.78807,-20.32932 -5.984064,5.724329 -7.673174,13.388849 -8.20749,20.076782 -2.174454,-2.807104 -4.978818,-6.161507 -10.480333,-9.217642 -1.312071,8.100434 0.90793,12.87598 1.767767,16.541248 -2.460605,-1.099626 -5.165797,-4.212162 -16.28871,-3.788072 2.322376,8.228661 12.902663,13.691969 19.06663,15.783633 -2.414392,1.152919 -5.03959,2.308378 -6.30457,5.558378 z"
       id="path3888"
       inkscape:connector-curvature="0"
       sodipodi:nodetypes="ccccccccccccccccccccccccccccc" />
  </g>
</svg>
